# xmcd
#
# Track frame offsets:
#	150
#	15496
#	33708
#	50976
#	71904
#	91045
#	109012
#	125831
#	142596
#	161047
#	180616
#	195325
#	213076
#	228473
#	241254
#	259464
#	281781
#	300823
#
# Disc length: 4219 seconds
#
# Revision: 0
# Processed by: cddbd v1.5.2PL0 Copyright (c) Steve Scherf et al.
# Submitted via: dBpowerAMP V4.0
#
DISCID=fb107912
DTITLE=Various Artist - R and B Hits - The Love Collection
DYEAR=2008
DGENRE=R&B
TTITLE0=Breathe
TTITLE1=U Know What's Up
TTITLE2=Back and Forth
TTITLE3=Red Light Special
TTITLE4=Bump 'N' Grind
TTITLE5=I Thing
TTITLE6=If You Love Me
TTITLE7=Right Here (Human Nature Remix)
TTITLE8=You're Makin' Me High
TTITLE9=No Woman, No Cry
TTITLE10=Shackles (Praise You)
TTITLE11=I Try
TTITLE12=Gone Till November
TTITLE13=Dumb
TTITLE14=Too Close
TTITLE15=Freak Me
TTITLE16=Pony
TTITLE17=Let's Stay Home Tonight
EXTD=
EXTT0=
EXTT1=
EXTT2=
EXTT3=
EXTT4=
EXTT5=
EXTT6=
EXTT7=
EXTT8=
EXTT9=
EXTT10=
EXTT11=
EXTT12=
EXTT13=
EXTT14=
EXTT15=
EXTT16=
EXTT17=
PLAYORDER=
